<svg width="200" height="200" viewBox="0 0 200 200" fill="none" xmlns="http://www.w3.org/2000/svg">
  <!-- 背景圆形 -->
  <circle cx="100" cy="100" r="90" fill="#4F46E5" />
  
  <!-- 数字9 -->
  <path d="M100 40C82.3269 40 68 54.3269 68 72C68 89.6731 82.3269 104 100 104C117.673 104 132 89.6731 132 72C132 54.3269 117.673 40 100 40ZM100 88C91.1634 88 84 80.8366 84 72C84 63.1634 91.1634 56 100 56C108.837 56 116 63.1634 116 72C116 80.8366 108.837 88 100 88Z" fill="white"/>
  
  <!-- 游戏手柄 -->
  <path d="M132 120H68C63.5817 120 60 123.582 60 128V144C60 148.418 63.5817 152 68 152H132C136.418 152 140 148.418 140 144V128C140 123.582 136.418 120 132 120ZM84 140H76V132H68V124H76V116H84V124H92V132H84V140ZM124 132C121.791 132 120 130.209 120 128C120 125.791 121.791 124 124 124C126.209 124 128 125.791 128 128C128 130.209 126.209 132 124 132ZM112 144C109.791 144 108 142.209 108 140C108 137.791 109.791 136 112 136C114.209 136 116 137.791 116 140C116 142.209 114.209 144 112 144Z" fill="white"/>
</svg>